<svg xmlns="http://www.w3.org/2000/svg" xmlns:xlink="http://www.w3.org/1999/xlink" width="500" zoomAndPan="magnify" viewBox="0 0 375 374.999991" height="500" preserveAspectRatio="xMidYMid meet" version="1.0"><defs><g/></defs><g fill="#ffffff" fill-opacity="1"><g transform="translate(105.136957, 228.785911)"><g><path d="M 38.703125 -56.890625 C 38.179688 -45.796875 38.820312 -36.023438 40.625 -27.578125 C 42.4375 -19.128906 46.179688 -12.097656 51.859375 -6.484375 C 57.535156 -0.867188 65.789062 3.351562 76.625 6.1875 L 76.625 49.34375 C 62.050781 47.40625 49.957031 43.082031 40.34375 36.375 C 30.726562 29.664062 23.304688 20.957031 18.078125 10.25 C 12.859375 -0.457031 9.472656 -12.710938 7.921875 -26.515625 C 6.378906 -40.316406 6.316406 -55.34375 7.734375 -71.59375 C 8.128906 -76.113281 8.773438 -81.207031 9.671875 -86.875 C 10.578125 -92.550781 11.675781 -98.390625 12.96875 -104.390625 C 14.257812 -110.390625 15.742188 -116.097656 17.421875 -121.515625 C 19.097656 -126.929688 20.835938 -131.578125 22.640625 -135.453125 L 57.078125 -135.453125 C 53.859375 -128.867188 50.828125 -121.03125 47.984375 -111.9375 C 45.148438 -102.84375 43.023438 -93.972656 41.609375 -85.328125 C 45.992188 -85.328125 50.148438 -85.296875 54.078125 -85.234375 C 58.015625 -85.171875 61.304688 -85.109375 63.953125 -85.046875 C 66.597656 -84.984375 68.113281 -84.820312 68.5 -84.5625 L 68.5 -56.890625 C 68.375 -56.890625 68.113281 -56.921875 67.71875 -56.984375 C 67.332031 -57.046875 66.234375 -57.078125 64.421875 -57.078125 C 62.617188 -57.078125 59.71875 -57.046875 55.71875 -56.984375 C 51.726562 -56.921875 46.054688 -56.890625 38.703125 -56.890625 Z M 38.703125 -56.890625 "/></g></g></g><g fill="#008f4a" fill-opacity="1"><g transform="translate(174.03148, 228.785911)"><g><path d="M -16.828125 -9.09375 L 17.21875 -9.09375 C 16.957031 -7.289062 16.726562 -5.550781 16.53125 -3.875 C 16.34375 -2.195312 16.25 -0.519531 16.25 1.15625 C 16.25 8.769531 17.796875 14.023438 20.890625 16.921875 C 23.992188 19.828125 27.347656 21.28125 30.953125 21.28125 C 34.304688 21.28125 37.304688 20.117188 39.953125 17.796875 C 42.597656 15.472656 43.921875 10.957031 43.921875 4.25 C 43.921875 0.125 43.335938 -3.898438 42.171875 -7.828125 C 41.015625 -11.765625 39.113281 -16.441406 36.46875 -21.859375 C 33.832031 -27.285156 30.125 -34.1875 25.34375 -42.5625 C 21.863281 -48.757812 18.734375 -55.082031 15.953125 -61.53125 C 13.179688 -67.976562 10.957031 -74.132812 9.28125 -80 C 7.601562 -85.875 6.765625 -90.878906 6.765625 -95.015625 C 6.765625 -104.679688 8.957031 -112.675781 13.34375 -119 C 17.738281 -125.320312 23.382812 -130.03125 30.28125 -133.125 C 37.1875 -136.21875 44.316406 -137.765625 51.671875 -137.765625 C 60.441406 -137.765625 68.335938 -135.828125 75.359375 -131.953125 C 82.390625 -128.085938 87.9375 -122.378906 92 -114.828125 C 96.070312 -107.285156 98.109375 -97.96875 98.109375 -86.875 C 98.109375 -84.039062 97.914062 -81.078125 97.53125 -77.984375 L 63.46875 -78.171875 C 64.238281 -82.429688 64.625 -86.171875 64.625 -89.390625 C 64.625 -95.453125 63.5625 -99.835938 61.4375 -102.546875 C 59.3125 -105.265625 56.765625 -106.625 53.796875 -106.625 C 51.335938 -106.625 48.785156 -105.523438 46.140625 -103.328125 C 43.503906 -101.140625 42.1875 -97.007812 42.1875 -90.9375 C 42.1875 -86.945312 42.957031 -82.078125 44.5 -76.328125 C 46.050781 -70.585938 48.695312 -64.363281 52.4375 -57.65625 C 59.664062 -44.757812 65.4375 -33.148438 69.75 -22.828125 C 74.070312 -12.515625 76.234375 -2.773438 76.234375 6.390625 C 76.234375 15.929688 73.941406 24.054688 69.359375 30.765625 C 64.785156 37.472656 58.953125 42.535156 51.859375 45.953125 C 44.765625 49.367188 37.410156 51.078125 29.796875 51.078125 C 22.054688 51.078125 14.570312 49.207031 7.34375 45.46875 C 0.125 41.726562 -5.804688 36.117188 -10.453125 28.640625 C -15.097656 21.160156 -17.421875 11.742188 -17.421875 0.390625 C -17.421875 -2.703125 -17.222656 -5.863281 -16.828125 -9.09375 Z M -16.828125 -9.09375 "/></g></g></g><g fill="#ffffff" fill-opacity="1"><g transform="translate(259.179912, 228.785911)"><g><path d="M 25.734375 3.296875 C 21.734375 3.296875 18.085938 2.296875 14.796875 0.296875 C 11.515625 -1.703125 8.875 -4.378906 6.875 -7.734375 C 4.875 -11.085938 3.875 -14.765625 3.875 -18.765625 C 3.875 -22.898438 4.875 -26.609375 6.875 -29.890625 C 8.875 -33.179688 11.515625 -35.828125 14.796875 -37.828125 C 18.085938 -39.828125 21.734375 -40.828125 25.734375 -40.828125 C 29.859375 -40.828125 33.566406 -39.828125 36.859375 -37.828125 C 40.148438 -35.828125 42.796875 -33.179688 44.796875 -29.890625 C 46.796875 -26.609375 47.796875 -22.898438 47.796875 -18.765625 C 47.796875 -14.765625 46.796875 -11.085938 44.796875 -7.734375 C 42.796875 -4.378906 40.148438 -1.703125 36.859375 0.296875 C 33.566406 2.296875 29.859375 3.296875 25.734375 3.296875 Z M 25.734375 3.296875 "/></g></g></g></svg>